# xmcd
#
# Track frame offsets: 
#        150
#        17596
#        31997
#        45673
#        58295
#        86671
#        95746
#        115187
#        135514
#        147694
#        171299
#        191024
#        207891
#        242095
#        269497
#        295714
#        312461
#        326340
#
# Disc length: 4707 seconds
#
# Revision: 0
# Processed by: cddbd v1.5.2PL0 Copyright (c) Steve Scherf et al.
# Submitted via: ExactAudioCopy v0.95b3
#
DISCID=10126112
DTITLE=Niebiesko-Czarni_Breakout_T.Nalepa - BLUES
DYEAR=2003
DGENRE=Blues
TTITLE0=Przyszedl do mnie blues
TTITLE1=Kiede bylem malym chlopcem
TTITLE2=Oni zaraz przyjda tu
TTITLE3=Pomaluj moje sny
TTITLE4=Co stalo sie kwiatom
TTITLE5=Przyszla do mnie bieda
TTITLE6=Daje ci prog
TTITLE7=Noca puka ktos
TTITLE8=Powiedzmy to
TTITLE9=Rzeka dziecinstwa
TTITLE10=Jest gdzies taki dom
TTITLE11=Kolo mego okna
TTITLE12=Modlitwa
TTITLE13=Na wysoka wchodze gore
TTITLE14=Musisz klamstwem karmic ich
TTITLE15=Sluchaj rytmu
TTITLE16=Pozegnalny blues
TTITLE17=W cieniu bluesa
EXTD=
EXTT0=
EXTT1=
EXTT2=
EXTT3=
EXTT4=
EXTT5=
EXTT6=
EXTT7=
EXTT8=
EXTT9=
EXTT10=
EXTT11=
EXTT12=
EXTT13=
EXTT14=
EXTT15=
EXTT16=
EXTT17=
PLAYORDER=
